<mxfile host="Electron" modified="2023-09-25T07:25:04.748Z" agent="Mozilla/5.0 (Windows NT 10.0; Win64; x64) AppleWebKit/537.36 (KHTML, like Gecko) draw.io/21.7.5 Chrome/114.0.5735.289 Electron/25.8.1 Safari/537.36" etag="yslO6bpzpkoe-OHQ_Lzr" version="21.7.5" type="device">
  <diagram name="Страница — 1" id="Nrh3TIs0oUijX1fJTNYn">
    <mxGraphModel dx="1221" dy="831" grid="1" gridSize="10" guides="1" tooltips="1" connect="1" arrows="1" fold="1" page="1" pageScale="1" pageWidth="827" pageHeight="1169" math="0" shadow="0">
      <root>
        <mxCell id="0" />
        <mxCell id="1" parent="0" />
        <mxCell id="KJx55b0Kp46psc_Pwh8A-3" value="Читатель" style="swimlane;childLayout=stackLayout;horizontal=1;startSize=50;horizontalStack=0;rounded=1;fontSize=14;fontStyle=0;strokeWidth=2;resizeParent=0;resizeLast=1;shadow=0;dashed=0;align=center;arcSize=4;whiteSpace=wrap;html=1;" vertex="1" parent="1">
          <mxGeometry x="70" y="80" width="160" height="120" as="geometry" />
        </mxCell>
        <mxCell id="KJx55b0Kp46psc_Pwh8A-4" value="# Номер чит. билета&lt;br&gt;* ФИО&lt;br&gt;* Адрес&lt;br&gt;○ Страна" style="align=left;strokeColor=none;fillColor=none;spacingLeft=4;fontSize=12;verticalAlign=top;resizable=0;rotatable=0;part=1;html=1;" vertex="1" parent="KJx55b0Kp46psc_Pwh8A-3">
          <mxGeometry y="50" width="160" height="70" as="geometry" />
        </mxCell>
        <mxCell id="KJx55b0Kp46psc_Pwh8A-5" value="Книга" style="swimlane;childLayout=stackLayout;horizontal=1;startSize=50;horizontalStack=0;rounded=1;fontSize=14;fontStyle=0;strokeWidth=2;resizeParent=0;resizeLast=1;shadow=0;dashed=0;align=center;arcSize=4;whiteSpace=wrap;html=1;" vertex="1" parent="1">
          <mxGeometry x="560" y="300" width="160" height="120" as="geometry" />
        </mxCell>
        <mxCell id="KJx55b0Kp46psc_Pwh8A-6" value="# Номер книги&lt;br&gt;* Название&lt;br&gt;○ Издательство&lt;br&gt;* Номер автора" style="align=left;strokeColor=none;fillColor=none;spacingLeft=4;fontSize=12;verticalAlign=top;resizable=0;rotatable=0;part=1;html=1;" vertex="1" parent="KJx55b0Kp46psc_Pwh8A-5">
          <mxGeometry y="50" width="160" height="70" as="geometry" />
        </mxCell>
        <mxCell id="KJx55b0Kp46psc_Pwh8A-7" value="" style="edgeStyle=entityRelationEdgeStyle;fontSize=12;html=1;endArrow=ERoneToMany;startArrow=none;rounded=0;exitX=1;exitY=0.25;exitDx=0;exitDy=0;entryX=0;entryY=0.5;entryDx=0;entryDy=0;dashed=1;startFill=0;endFill=0;" edge="1" parent="1" source="KJx55b0Kp46psc_Pwh8A-4" target="KJx55b0Kp46psc_Pwh8A-9">
          <mxGeometry width="100" height="100" relative="1" as="geometry">
            <mxPoint x="300" y="350" as="sourcePoint" />
            <mxPoint x="400" y="250" as="targetPoint" />
          </mxGeometry>
        </mxCell>
        <mxCell id="KJx55b0Kp46psc_Pwh8A-8" value="Выдача книги" style="swimlane;childLayout=stackLayout;horizontal=1;startSize=50;horizontalStack=0;rounded=1;fontSize=14;fontStyle=0;strokeWidth=2;resizeParent=0;resizeLast=1;shadow=0;dashed=0;align=center;arcSize=4;whiteSpace=wrap;html=1;" vertex="1" parent="1">
          <mxGeometry x="300" y="220" width="160" height="110" as="geometry" />
        </mxCell>
        <mxCell id="KJx55b0Kp46psc_Pwh8A-9" value="* Дата взятия книги&lt;br&gt;* Статус возвращения" style="align=left;strokeColor=none;fillColor=none;spacingLeft=4;fontSize=12;verticalAlign=top;resizable=0;rotatable=0;part=1;html=1;" vertex="1" parent="KJx55b0Kp46psc_Pwh8A-8">
          <mxGeometry y="50" width="160" height="60" as="geometry" />
        </mxCell>
        <mxCell id="KJx55b0Kp46psc_Pwh8A-10" value="" style="edgeStyle=entityRelationEdgeStyle;fontSize=12;html=1;endArrow=none;startArrow=ERoneToMany;rounded=0;exitX=1;exitY=0.5;exitDx=0;exitDy=0;entryX=0;entryY=0.5;entryDx=0;entryDy=0;dashed=1;endFill=0;startFill=0;" edge="1" parent="1" source="KJx55b0Kp46psc_Pwh8A-9" target="KJx55b0Kp46psc_Pwh8A-6">
          <mxGeometry width="100" height="100" relative="1" as="geometry">
            <mxPoint x="240" y="158" as="sourcePoint" />
            <mxPoint x="310" y="310" as="targetPoint" />
          </mxGeometry>
        </mxCell>
        <mxCell id="KJx55b0Kp46psc_Pwh8A-39" style="edgeStyle=orthogonalEdgeStyle;rounded=0;orthogonalLoop=1;jettySize=auto;html=1;exitX=0.5;exitY=1;exitDx=0;exitDy=0;entryX=0.5;entryY=0;entryDx=0;entryDy=0;startArrow=ERoneToMany;startFill=0;endArrow=none;endFill=0;dashed=1;" edge="1" parent="1" source="KJx55b0Kp46psc_Pwh8A-11" target="KJx55b0Kp46psc_Pwh8A-30">
          <mxGeometry relative="1" as="geometry" />
        </mxCell>
        <mxCell id="KJx55b0Kp46psc_Pwh8A-11" value="Разработчики" style="swimlane;childLayout=stackLayout;horizontal=1;startSize=50;horizontalStack=0;rounded=1;fontSize=14;fontStyle=0;strokeWidth=2;resizeParent=0;resizeLast=1;shadow=0;dashed=0;align=center;arcSize=4;whiteSpace=wrap;html=1;" vertex="1" parent="1">
          <mxGeometry x="60" y="560" width="160" height="120" as="geometry" />
        </mxCell>
        <mxCell id="KJx55b0Kp46psc_Pwh8A-12" value="# ID&lt;br&gt;* Имя" style="align=left;strokeColor=none;fillColor=none;spacingLeft=4;fontSize=12;verticalAlign=top;resizable=0;rotatable=0;part=1;html=1;" vertex="1" parent="KJx55b0Kp46psc_Pwh8A-11">
          <mxGeometry y="50" width="160" height="70" as="geometry" />
        </mxCell>
        <mxCell id="KJx55b0Kp46psc_Pwh8A-13" value="Задачи" style="swimlane;childLayout=stackLayout;horizontal=1;startSize=50;horizontalStack=0;rounded=1;fontSize=14;fontStyle=0;strokeWidth=2;resizeParent=0;resizeLast=1;shadow=0;dashed=0;align=center;arcSize=4;whiteSpace=wrap;html=1;" vertex="1" parent="1">
          <mxGeometry x="300" y="560" width="160" height="120" as="geometry" />
        </mxCell>
        <mxCell id="KJx55b0Kp46psc_Pwh8A-14" value="# ID&lt;br&gt;* Название&lt;br&gt;* Описание&lt;br&gt;* Срок выполнения" style="align=left;strokeColor=none;fillColor=none;spacingLeft=4;fontSize=12;verticalAlign=top;resizable=0;rotatable=0;part=1;html=1;" vertex="1" parent="KJx55b0Kp46psc_Pwh8A-13">
          <mxGeometry y="50" width="160" height="70" as="geometry" />
        </mxCell>
        <mxCell id="KJx55b0Kp46psc_Pwh8A-15" value="Проекты" style="swimlane;childLayout=stackLayout;horizontal=1;startSize=50;horizontalStack=0;rounded=1;fontSize=14;fontStyle=0;strokeWidth=2;resizeParent=0;resizeLast=1;shadow=0;dashed=0;align=center;arcSize=4;whiteSpace=wrap;html=1;" vertex="1" parent="1">
          <mxGeometry x="560" y="560" width="160" height="130" as="geometry" />
        </mxCell>
        <mxCell id="KJx55b0Kp46psc_Pwh8A-16" value="# ID&lt;br style=&quot;border-color: var(--border-color);&quot;&gt;* Название&lt;br style=&quot;border-color: var(--border-color);&quot;&gt;* Описание&lt;br style=&quot;border-color: var(--border-color);&quot;&gt;* Дата начала&lt;br&gt;* Дата окончания" style="align=left;strokeColor=none;fillColor=none;spacingLeft=4;fontSize=12;verticalAlign=top;resizable=0;rotatable=0;part=1;html=1;" vertex="1" parent="KJx55b0Kp46psc_Pwh8A-15">
          <mxGeometry y="50" width="160" height="80" as="geometry" />
        </mxCell>
        <mxCell id="KJx55b0Kp46psc_Pwh8A-17" value="" style="edgeStyle=entityRelationEdgeStyle;fontSize=12;html=1;endArrow=ERmany;startArrow=ERmany;rounded=0;exitX=1;exitY=0.5;exitDx=0;exitDy=0;entryX=0;entryY=0.5;entryDx=0;entryDy=0;dashed=1;endFill=0;" edge="1" parent="1" source="KJx55b0Kp46psc_Pwh8A-12" target="KJx55b0Kp46psc_Pwh8A-14">
          <mxGeometry width="100" height="100" relative="1" as="geometry">
            <mxPoint x="260" y="630" as="sourcePoint" />
            <mxPoint x="360" y="715" as="targetPoint" />
          </mxGeometry>
        </mxCell>
        <mxCell id="KJx55b0Kp46psc_Pwh8A-18" value="" style="edgeStyle=entityRelationEdgeStyle;fontSize=12;html=1;endArrow=ERmany;startArrow=ERmany;rounded=0;exitX=1;exitY=0.5;exitDx=0;exitDy=0;entryX=0;entryY=0.5;entryDx=0;entryDy=0;dashed=1;endFill=0;" edge="1" parent="1" source="KJx55b0Kp46psc_Pwh8A-14" target="KJx55b0Kp46psc_Pwh8A-16">
          <mxGeometry width="100" height="100" relative="1" as="geometry">
            <mxPoint x="470" y="640" as="sourcePoint" />
            <mxPoint x="550" y="640" as="targetPoint" />
          </mxGeometry>
        </mxCell>
        <mxCell id="KJx55b0Kp46psc_Pwh8A-28" value="Назначение задачи" style="swimlane;childLayout=stackLayout;horizontal=1;startSize=50;horizontalStack=0;rounded=1;fontSize=14;fontStyle=0;strokeWidth=2;resizeParent=0;resizeLast=1;shadow=0;dashed=0;align=center;arcSize=4;whiteSpace=wrap;html=1;" vertex="1" parent="1">
          <mxGeometry x="300" y="860" width="160" height="120" as="geometry" />
        </mxCell>
        <mxCell id="KJx55b0Kp46psc_Pwh8A-29" value="#&amp;nbsp;ID_Разработчика&lt;br&gt;* ID_Задачи" style="align=left;strokeColor=none;fillColor=none;spacingLeft=4;fontSize=12;verticalAlign=top;resizable=0;rotatable=0;part=1;html=1;" vertex="1" parent="KJx55b0Kp46psc_Pwh8A-28">
          <mxGeometry y="50" width="160" height="70" as="geometry" />
        </mxCell>
        <mxCell id="KJx55b0Kp46psc_Pwh8A-30" value="Членство в проекте" style="swimlane;childLayout=stackLayout;horizontal=1;startSize=50;horizontalStack=0;rounded=1;fontSize=14;fontStyle=0;strokeWidth=2;resizeParent=0;resizeLast=1;shadow=0;dashed=0;align=center;arcSize=4;whiteSpace=wrap;html=1;" vertex="1" parent="1">
          <mxGeometry x="60" y="860" width="160" height="120" as="geometry" />
        </mxCell>
        <mxCell id="KJx55b0Kp46psc_Pwh8A-31" value="#&amp;nbsp;ID_Разработчика&lt;br style=&quot;border-color: var(--border-color);&quot;&gt;* ID_Проекта" style="align=left;strokeColor=none;fillColor=none;spacingLeft=4;fontSize=12;verticalAlign=top;resizable=0;rotatable=0;part=1;html=1;" vertex="1" parent="KJx55b0Kp46psc_Pwh8A-30">
          <mxGeometry y="50" width="160" height="70" as="geometry" />
        </mxCell>
        <mxCell id="KJx55b0Kp46psc_Pwh8A-32" value="Отношение к проекту" style="swimlane;childLayout=stackLayout;horizontal=1;startSize=50;horizontalStack=0;rounded=1;fontSize=14;fontStyle=0;strokeWidth=2;resizeParent=0;resizeLast=1;shadow=0;dashed=0;align=center;arcSize=4;whiteSpace=wrap;html=1;" vertex="1" parent="1">
          <mxGeometry x="560" y="850" width="160" height="120" as="geometry" />
        </mxCell>
        <mxCell id="KJx55b0Kp46psc_Pwh8A-33" value="# ID_Задачи&amp;nbsp;&lt;br style=&quot;border-color: var(--border-color);&quot;&gt;* ID_Проекта" style="align=left;strokeColor=none;fillColor=none;spacingLeft=4;fontSize=12;verticalAlign=top;resizable=0;rotatable=0;part=1;html=1;" vertex="1" parent="KJx55b0Kp46psc_Pwh8A-32">
          <mxGeometry y="50" width="160" height="70" as="geometry" />
        </mxCell>
        <mxCell id="KJx55b0Kp46psc_Pwh8A-40" style="edgeStyle=orthogonalEdgeStyle;rounded=0;orthogonalLoop=1;jettySize=auto;html=1;exitX=0.5;exitY=1;exitDx=0;exitDy=0;entryX=0.5;entryY=0;entryDx=0;entryDy=0;startArrow=ERoneToMany;startFill=0;endArrow=none;endFill=0;dashed=1;" edge="1" parent="1" source="KJx55b0Kp46psc_Pwh8A-14" target="KJx55b0Kp46psc_Pwh8A-28">
          <mxGeometry relative="1" as="geometry">
            <mxPoint x="379.66999999999996" y="680" as="sourcePoint" />
            <mxPoint x="379.66999999999996" y="860" as="targetPoint" />
          </mxGeometry>
        </mxCell>
        <mxCell id="KJx55b0Kp46psc_Pwh8A-41" style="edgeStyle=orthogonalEdgeStyle;rounded=0;orthogonalLoop=1;jettySize=auto;html=1;exitX=0.5;exitY=1;exitDx=0;exitDy=0;entryX=0.5;entryY=0;entryDx=0;entryDy=0;startArrow=ERmany;startFill=0;endArrow=ERmany;endFill=0;dashed=1;" edge="1" parent="1" source="KJx55b0Kp46psc_Pwh8A-16" target="KJx55b0Kp46psc_Pwh8A-32">
          <mxGeometry relative="1" as="geometry">
            <mxPoint x="390" y="690" as="sourcePoint" />
            <mxPoint x="390" y="870" as="targetPoint" />
          </mxGeometry>
        </mxCell>
        <mxCell id="KJx55b0Kp46psc_Pwh8A-60" value="Растение" style="swimlane;childLayout=stackLayout;horizontal=1;startSize=50;horizontalStack=0;rounded=1;fontSize=14;fontStyle=0;strokeWidth=2;resizeParent=0;resizeLast=1;shadow=0;dashed=0;align=center;arcSize=4;whiteSpace=wrap;html=1;" vertex="1" parent="1">
          <mxGeometry x="60" y="1220" width="160" height="150" as="geometry" />
        </mxCell>
        <mxCell id="KJx55b0Kp46psc_Pwh8A-61" value="Растение_ID (PK)&lt;br&gt;Название, Вид_ID (FK)&lt;br&gt;Род_ID (FK)&lt;br&gt;Семейство_ID (FK)&lt;br&gt;Класс_ID (FK)&lt;br&gt;Отдел_ID (FK)" style="align=left;strokeColor=none;fillColor=none;spacingLeft=4;fontSize=12;verticalAlign=top;resizable=0;rotatable=0;part=1;html=1;" vertex="1" parent="KJx55b0Kp46psc_Pwh8A-60">
          <mxGeometry y="50" width="160" height="100" as="geometry" />
        </mxCell>
        <mxCell id="KJx55b0Kp46psc_Pwh8A-62" value="Магазин" style="swimlane;childLayout=stackLayout;horizontal=1;startSize=50;horizontalStack=0;rounded=1;fontSize=14;fontStyle=0;strokeWidth=2;resizeParent=0;resizeLast=1;shadow=0;dashed=0;align=center;arcSize=4;whiteSpace=wrap;html=1;" vertex="1" parent="1">
          <mxGeometry x="300" y="1210" width="160" height="120" as="geometry" />
        </mxCell>
        <mxCell id="KJx55b0Kp46psc_Pwh8A-63" value="Магазин_ID (PK)&lt;br&gt;Название" style="align=left;strokeColor=none;fillColor=none;spacingLeft=4;fontSize=12;verticalAlign=top;resizable=0;rotatable=0;part=1;html=1;" vertex="1" parent="KJx55b0Kp46psc_Pwh8A-62">
          <mxGeometry y="50" width="160" height="70" as="geometry" />
        </mxCell>
        <mxCell id="KJx55b0Kp46psc_Pwh8A-64" value="Роли" style="swimlane;childLayout=stackLayout;horizontal=1;startSize=50;horizontalStack=0;rounded=1;fontSize=14;fontStyle=0;strokeWidth=2;resizeParent=0;resizeLast=1;shadow=0;dashed=0;align=center;arcSize=4;whiteSpace=wrap;html=1;" vertex="1" parent="1">
          <mxGeometry x="560" y="1210" width="160" height="130" as="geometry" />
        </mxCell>
        <mxCell id="KJx55b0Kp46psc_Pwh8A-65" value="Роль_ID (PK)&lt;br&gt;Название" style="align=left;strokeColor=none;fillColor=none;spacingLeft=4;fontSize=12;verticalAlign=top;resizable=0;rotatable=0;part=1;html=1;" vertex="1" parent="KJx55b0Kp46psc_Pwh8A-64">
          <mxGeometry y="50" width="160" height="80" as="geometry" />
        </mxCell>
        <mxCell id="KJx55b0Kp46psc_Pwh8A-68" value="Семейство" style="swimlane;childLayout=stackLayout;horizontal=1;startSize=50;horizontalStack=0;rounded=1;fontSize=14;fontStyle=0;strokeWidth=2;resizeParent=0;resizeLast=1;shadow=0;dashed=0;align=center;arcSize=4;whiteSpace=wrap;html=1;" vertex="1" parent="1">
          <mxGeometry x="60" y="1760" width="160" height="120" as="geometry" />
        </mxCell>
        <mxCell id="KJx55b0Kp46psc_Pwh8A-69" value="Семейство_ID (PK)&lt;br&gt;Название" style="align=left;strokeColor=none;fillColor=none;spacingLeft=4;fontSize=12;verticalAlign=top;resizable=0;rotatable=0;part=1;html=1;" vertex="1" parent="KJx55b0Kp46psc_Pwh8A-68">
          <mxGeometry y="50" width="160" height="70" as="geometry" />
        </mxCell>
        <mxCell id="KJx55b0Kp46psc_Pwh8A-72" value="Класс" style="swimlane;childLayout=stackLayout;horizontal=1;startSize=50;horizontalStack=0;rounded=1;fontSize=14;fontStyle=0;strokeWidth=2;resizeParent=0;resizeLast=1;shadow=0;dashed=0;align=center;arcSize=4;whiteSpace=wrap;html=1;" vertex="1" parent="1">
          <mxGeometry x="60" y="1920" width="160" height="120" as="geometry" />
        </mxCell>
        <mxCell id="KJx55b0Kp46psc_Pwh8A-73" value="Класс_ID (PK)&lt;br&gt;Название" style="align=left;strokeColor=none;fillColor=none;spacingLeft=4;fontSize=12;verticalAlign=top;resizable=0;rotatable=0;part=1;html=1;" vertex="1" parent="KJx55b0Kp46psc_Pwh8A-72">
          <mxGeometry y="50" width="160" height="70" as="geometry" />
        </mxCell>
        <mxCell id="KJx55b0Kp46psc_Pwh8A-76" value="Начальники" style="swimlane;childLayout=stackLayout;horizontal=1;startSize=50;horizontalStack=0;rounded=1;fontSize=14;fontStyle=0;strokeWidth=2;resizeParent=0;resizeLast=1;shadow=0;dashed=0;align=center;arcSize=4;whiteSpace=wrap;html=1;" vertex="1" parent="1">
          <mxGeometry x="560" y="1540" width="160" height="120" as="geometry" />
        </mxCell>
        <mxCell id="KJx55b0Kp46psc_Pwh8A-77" value="Начальник_ID (PK)&lt;br&gt;Сотрудник_ID (FK)&lt;br&gt;Роль_ID (FK)" style="align=left;strokeColor=none;fillColor=none;spacingLeft=4;fontSize=12;verticalAlign=top;resizable=0;rotatable=0;part=1;html=1;" vertex="1" parent="KJx55b0Kp46psc_Pwh8A-76">
          <mxGeometry y="50" width="160" height="70" as="geometry" />
        </mxCell>
        <mxCell id="KJx55b0Kp46psc_Pwh8A-78" value="Иерархия_Растений" style="swimlane;childLayout=stackLayout;horizontal=1;startSize=50;horizontalStack=0;rounded=1;fontSize=14;fontStyle=0;strokeWidth=2;resizeParent=0;resizeLast=1;shadow=0;dashed=0;align=center;arcSize=4;whiteSpace=wrap;html=1;" vertex="1" parent="1">
          <mxGeometry x="60" y="1420" width="160" height="120" as="geometry" />
        </mxCell>
        <mxCell id="KJx55b0Kp46psc_Pwh8A-79" value="Иерархия_ID (PK)&lt;br&gt;Родитель_ID (FK)&lt;br&gt;Ребенок_ID (FK)" style="align=left;strokeColor=none;fillColor=none;spacingLeft=4;fontSize=12;verticalAlign=top;resizable=0;rotatable=0;part=1;html=1;" vertex="1" parent="KJx55b0Kp46psc_Pwh8A-78">
          <mxGeometry y="50" width="160" height="70" as="geometry" />
        </mxCell>
        <mxCell id="KJx55b0Kp46psc_Pwh8A-80" value="Род " style="swimlane;childLayout=stackLayout;horizontal=1;startSize=50;horizontalStack=0;rounded=1;fontSize=14;fontStyle=0;strokeWidth=2;resizeParent=0;resizeLast=1;shadow=0;dashed=0;align=center;arcSize=4;whiteSpace=wrap;html=1;" vertex="1" parent="1">
          <mxGeometry x="60" y="1580" width="160" height="120" as="geometry" />
        </mxCell>
        <mxCell id="KJx55b0Kp46psc_Pwh8A-81" value="Род_ID (PK)&lt;br&gt;Название" style="align=left;strokeColor=none;fillColor=none;spacingLeft=4;fontSize=12;verticalAlign=top;resizable=0;rotatable=0;part=1;html=1;" vertex="1" parent="KJx55b0Kp46psc_Pwh8A-80">
          <mxGeometry y="50" width="160" height="70" as="geometry" />
        </mxCell>
        <mxCell id="KJx55b0Kp46psc_Pwh8A-82" value="Отдел" style="swimlane;childLayout=stackLayout;horizontal=1;startSize=50;horizontalStack=0;rounded=1;fontSize=14;fontStyle=0;strokeWidth=2;resizeParent=0;resizeLast=1;shadow=0;dashed=0;align=center;arcSize=4;whiteSpace=wrap;html=1;" vertex="1" parent="1">
          <mxGeometry x="560" y="1380" width="160" height="120" as="geometry" />
        </mxCell>
        <mxCell id="KJx55b0Kp46psc_Pwh8A-83" value="Отдел_ID (PK)&lt;br&gt;Название" style="align=left;strokeColor=none;fillColor=none;spacingLeft=4;fontSize=12;verticalAlign=top;resizable=0;rotatable=0;part=1;html=1;" vertex="1" parent="KJx55b0Kp46psc_Pwh8A-82">
          <mxGeometry y="50" width="160" height="70" as="geometry" />
        </mxCell>
        <mxCell id="KJx55b0Kp46psc_Pwh8A-84" value="Сотрудник" style="swimlane;childLayout=stackLayout;horizontal=1;startSize=50;horizontalStack=0;rounded=1;fontSize=14;fontStyle=0;strokeWidth=2;resizeParent=0;resizeLast=1;shadow=0;dashed=0;align=center;arcSize=4;whiteSpace=wrap;html=1;" vertex="1" parent="1">
          <mxGeometry x="560" y="1700" width="160" height="120" as="geometry" />
        </mxCell>
        <mxCell id="KJx55b0Kp46psc_Pwh8A-85" value="Сотрудник_ID (PK)&lt;br&gt;Имя&lt;br&gt;Фамилия&lt;br&gt;Роль" style="align=left;strokeColor=none;fillColor=none;spacingLeft=4;fontSize=12;verticalAlign=top;resizable=0;rotatable=0;part=1;html=1;" vertex="1" parent="KJx55b0Kp46psc_Pwh8A-84">
          <mxGeometry y="50" width="160" height="70" as="geometry" />
        </mxCell>
        <mxCell id="KJx55b0Kp46psc_Pwh8A-86" value="История_Работы" style="swimlane;childLayout=stackLayout;horizontal=1;startSize=50;horizontalStack=0;rounded=1;fontSize=14;fontStyle=0;strokeWidth=2;resizeParent=0;resizeLast=1;shadow=0;dashed=0;align=center;arcSize=4;whiteSpace=wrap;html=1;" vertex="1" parent="1">
          <mxGeometry x="560" y="1870" width="160" height="130" as="geometry" />
        </mxCell>
        <mxCell id="KJx55b0Kp46psc_Pwh8A-87" value="История_Работы_ID (PK)&lt;br&gt;Сотрудник_ID (FK)&lt;br&gt;Должность&lt;br&gt;Дата_Начала&lt;br&gt;Дата_Окончания" style="align=left;strokeColor=none;fillColor=none;spacingLeft=4;fontSize=12;verticalAlign=top;resizable=0;rotatable=0;part=1;html=1;" vertex="1" parent="KJx55b0Kp46psc_Pwh8A-86">
          <mxGeometry y="50" width="160" height="80" as="geometry" />
        </mxCell>
        <mxCell id="KJx55b0Kp46psc_Pwh8A-88" value="Бывший_Сотрудник" style="swimlane;childLayout=stackLayout;horizontal=1;startSize=50;horizontalStack=0;rounded=1;fontSize=14;fontStyle=0;strokeWidth=2;resizeParent=0;resizeLast=1;shadow=0;dashed=0;align=center;arcSize=4;whiteSpace=wrap;html=1;" vertex="1" parent="1">
          <mxGeometry x="560" y="2040" width="160" height="120" as="geometry" />
        </mxCell>
        <mxCell id="KJx55b0Kp46psc_Pwh8A-89" value="Бывший_Сотрудник_ID (PK)&lt;br&gt;Сотрудник_ID (FK)&lt;br&gt;Дата_Увольнения" style="align=left;strokeColor=none;fillColor=none;spacingLeft=4;fontSize=12;verticalAlign=top;resizable=0;rotatable=0;part=1;html=1;" vertex="1" parent="KJx55b0Kp46psc_Pwh8A-88">
          <mxGeometry y="50" width="160" height="70" as="geometry" />
        </mxCell>
        <mxCell id="KJx55b0Kp46psc_Pwh8A-91" value="" style="endArrow=ERoneToMany;dashed=1;html=1;rounded=0;exitX=1;exitY=0.25;exitDx=0;exitDy=0;entryX=0;entryY=0.5;entryDx=0;entryDy=0;endFill=0;" edge="1" parent="1" source="KJx55b0Kp46psc_Pwh8A-61" target="KJx55b0Kp46psc_Pwh8A-63">
          <mxGeometry width="50" height="50" relative="1" as="geometry">
            <mxPoint x="280" y="1410" as="sourcePoint" />
            <mxPoint x="330" y="1360" as="targetPoint" />
          </mxGeometry>
        </mxCell>
        <mxCell id="KJx55b0Kp46psc_Pwh8A-93" value="" style="endArrow=ERmany;dashed=1;html=1;rounded=0;exitX=1;exitY=0.5;exitDx=0;exitDy=0;entryX=0;entryY=0.5;entryDx=0;entryDy=0;startArrow=ERmany;startFill=0;endFill=0;" edge="1" parent="1" source="KJx55b0Kp46psc_Pwh8A-63" target="KJx55b0Kp46psc_Pwh8A-65">
          <mxGeometry width="50" height="50" relative="1" as="geometry">
            <mxPoint x="500" y="1330" as="sourcePoint" />
            <mxPoint x="560" y="1295" as="targetPoint" />
          </mxGeometry>
        </mxCell>
        <mxCell id="KJx55b0Kp46psc_Pwh8A-103" value="" style="endArrow=ERmany;dashed=1;html=1;rounded=0;entryX=0.5;entryY=1;entryDx=0;entryDy=0;exitX=0.5;exitY=0;exitDx=0;exitDy=0;startArrow=ERmany;startFill=0;endFill=0;" edge="1" parent="1" source="KJx55b0Kp46psc_Pwh8A-82" target="KJx55b0Kp46psc_Pwh8A-65">
          <mxGeometry width="50" height="50" relative="1" as="geometry">
            <mxPoint x="350" y="1450" as="sourcePoint" />
            <mxPoint x="400" y="1400" as="targetPoint" />
          </mxGeometry>
        </mxCell>
        <mxCell id="KJx55b0Kp46psc_Pwh8A-104" value="" style="endArrow=ERmany;dashed=1;html=1;rounded=0;entryX=0.5;entryY=1;entryDx=0;entryDy=0;exitX=0.5;exitY=0;exitDx=0;exitDy=0;startArrow=ERmany;startFill=0;endFill=0;" edge="1" parent="1" source="KJx55b0Kp46psc_Pwh8A-78" target="KJx55b0Kp46psc_Pwh8A-61">
          <mxGeometry width="50" height="50" relative="1" as="geometry">
            <mxPoint x="290" y="1450" as="sourcePoint" />
            <mxPoint x="340" y="1400" as="targetPoint" />
          </mxGeometry>
        </mxCell>
        <mxCell id="KJx55b0Kp46psc_Pwh8A-105" value="" style="endArrow=ERmany;dashed=1;html=1;rounded=0;entryX=0.5;entryY=1;entryDx=0;entryDy=0;exitX=0.5;exitY=0;exitDx=0;exitDy=0;startArrow=ERmany;startFill=0;endFill=0;" edge="1" parent="1" source="KJx55b0Kp46psc_Pwh8A-76" target="KJx55b0Kp46psc_Pwh8A-83">
          <mxGeometry width="50" height="50" relative="1" as="geometry">
            <mxPoint x="430" y="1570" as="sourcePoint" />
            <mxPoint x="480" y="1520" as="targetPoint" />
          </mxGeometry>
        </mxCell>
        <mxCell id="KJx55b0Kp46psc_Pwh8A-106" value="" style="endArrow=ERmany;dashed=1;html=1;rounded=0;entryX=0.5;entryY=1;entryDx=0;entryDy=0;exitX=0.5;exitY=0;exitDx=0;exitDy=0;startArrow=ERmany;startFill=0;endFill=0;" edge="1" parent="1" source="KJx55b0Kp46psc_Pwh8A-80" target="KJx55b0Kp46psc_Pwh8A-79">
          <mxGeometry width="50" height="50" relative="1" as="geometry">
            <mxPoint x="320" y="1530" as="sourcePoint" />
            <mxPoint x="320" y="1480" as="targetPoint" />
          </mxGeometry>
        </mxCell>
        <mxCell id="KJx55b0Kp46psc_Pwh8A-107" value="" style="endArrow=ERoneToMany;dashed=1;html=1;rounded=0;entryX=0.5;entryY=1;entryDx=0;entryDy=0;exitX=0.5;exitY=0;exitDx=0;exitDy=0;startArrow=none;startFill=0;endFill=0;" edge="1" parent="1" source="KJx55b0Kp46psc_Pwh8A-68" target="KJx55b0Kp46psc_Pwh8A-81">
          <mxGeometry width="50" height="50" relative="1" as="geometry">
            <mxPoint x="330" y="1700" as="sourcePoint" />
            <mxPoint x="380" y="1650" as="targetPoint" />
          </mxGeometry>
        </mxCell>
        <mxCell id="KJx55b0Kp46psc_Pwh8A-108" value="" style="endArrow=none;dashed=1;html=1;rounded=0;entryX=0.5;entryY=1;entryDx=0;entryDy=0;exitX=0.5;exitY=0;exitDx=0;exitDy=0;startArrow=ERoneToMany;startFill=0;" edge="1" parent="1" source="KJx55b0Kp46psc_Pwh8A-84" target="KJx55b0Kp46psc_Pwh8A-77">
          <mxGeometry width="50" height="50" relative="1" as="geometry">
            <mxPoint x="400" y="1720" as="sourcePoint" />
            <mxPoint x="450" y="1670" as="targetPoint" />
          </mxGeometry>
        </mxCell>
        <mxCell id="KJx55b0Kp46psc_Pwh8A-109" value="" style="endArrow=ERoneToMany;dashed=1;html=1;rounded=0;exitX=0.5;exitY=0;exitDx=0;exitDy=0;startArrow=none;startFill=0;endFill=0;" edge="1" parent="1" source="KJx55b0Kp46psc_Pwh8A-72">
          <mxGeometry width="50" height="50" relative="1" as="geometry">
            <mxPoint x="390" y="1950" as="sourcePoint" />
            <mxPoint x="140" y="1880" as="targetPoint" />
          </mxGeometry>
        </mxCell>
        <mxCell id="KJx55b0Kp46psc_Pwh8A-110" value="" style="endArrow=ERmany;dashed=1;html=1;rounded=0;entryX=0.5;entryY=1;entryDx=0;entryDy=0;exitX=0.5;exitY=0;exitDx=0;exitDy=0;startArrow=ERmany;startFill=0;endFill=0;" edge="1" parent="1" source="KJx55b0Kp46psc_Pwh8A-88" target="KJx55b0Kp46psc_Pwh8A-87">
          <mxGeometry width="50" height="50" relative="1" as="geometry">
            <mxPoint x="440" y="2070" as="sourcePoint" />
            <mxPoint x="490" y="2020" as="targetPoint" />
          </mxGeometry>
        </mxCell>
        <mxCell id="KJx55b0Kp46psc_Pwh8A-111" value="" style="endArrow=ERmandOne;dashed=1;html=1;rounded=0;entryX=0.5;entryY=1;entryDx=0;entryDy=0;exitX=0.5;exitY=0;exitDx=0;exitDy=0;startArrow=ERmandOne;startFill=0;endFill=0;" edge="1" parent="1" source="KJx55b0Kp46psc_Pwh8A-86" target="KJx55b0Kp46psc_Pwh8A-85">
          <mxGeometry width="50" height="50" relative="1" as="geometry">
            <mxPoint x="490" y="1870" as="sourcePoint" />
            <mxPoint x="540" y="1820" as="targetPoint" />
          </mxGeometry>
        </mxCell>
        <mxCell id="KJx55b0Kp46psc_Pwh8A-112" value="Драгоценность" style="swimlane;childLayout=stackLayout;horizontal=1;startSize=50;horizontalStack=0;rounded=1;fontSize=14;fontStyle=0;strokeWidth=2;resizeParent=0;resizeLast=1;shadow=0;dashed=0;align=center;arcSize=4;whiteSpace=wrap;html=1;" vertex="1" parent="1">
          <mxGeometry x="60" y="2370" width="160" height="130" as="geometry" />
        </mxCell>
        <mxCell id="KJx55b0Kp46psc_Pwh8A-113" value="Идентификатор (PK)&lt;br&gt;&lt;span style=&quot;background-color: initial;&quot;&gt;Код&lt;/span&gt;&lt;br&gt;&lt;div&gt;Описание&lt;/div&gt;&lt;div&gt;Ставка&lt;/div&gt;&lt;div&gt;Страховая стоимость&lt;/div&gt;" style="align=left;strokeColor=none;fillColor=none;spacingLeft=4;fontSize=12;verticalAlign=top;resizable=0;rotatable=0;part=1;html=1;" vertex="1" parent="KJx55b0Kp46psc_Pwh8A-112">
          <mxGeometry y="50" width="160" height="80" as="geometry" />
        </mxCell>
        <mxCell id="KJx55b0Kp46psc_Pwh8A-114" value="Клиент" style="swimlane;childLayout=stackLayout;horizontal=1;startSize=50;horizontalStack=0;rounded=1;fontSize=14;fontStyle=0;strokeWidth=2;resizeParent=0;resizeLast=1;shadow=0;dashed=0;align=center;arcSize=4;whiteSpace=wrap;html=1;" vertex="1" parent="1">
          <mxGeometry x="590" y="2380" width="160" height="120" as="geometry" />
        </mxCell>
        <mxCell id="KJx55b0Kp46psc_Pwh8A-115" value="Идентификатор (PK)&lt;br&gt;ФИО" style="align=left;strokeColor=none;fillColor=none;spacingLeft=4;fontSize=12;verticalAlign=top;resizable=0;rotatable=0;part=1;html=1;" vertex="1" parent="KJx55b0Kp46psc_Pwh8A-114">
          <mxGeometry y="50" width="160" height="70" as="geometry" />
        </mxCell>
        <mxCell id="KJx55b0Kp46psc_Pwh8A-116" value="Аренда" style="swimlane;childLayout=stackLayout;horizontal=1;startSize=50;horizontalStack=0;rounded=1;fontSize=14;fontStyle=0;strokeWidth=2;resizeParent=0;resizeLast=1;shadow=0;dashed=0;align=center;arcSize=4;whiteSpace=wrap;html=1;" vertex="1" parent="1">
          <mxGeometry x="310" y="2365" width="160" height="145" as="geometry" />
        </mxCell>
        <mxCell id="KJx55b0Kp46psc_Pwh8A-117" value="&lt;div&gt;Идентификатор аренды (PK)&lt;/div&gt;&lt;div&gt;Дата начала аренды&lt;/div&gt;&lt;div&gt;Дата окончания аренды&lt;/div&gt;&lt;div&gt;Стоимость аренды&lt;/div&gt;&lt;div&gt;Страховая стоимость&lt;/div&gt;" style="align=left;strokeColor=none;fillColor=none;spacingLeft=4;fontSize=12;verticalAlign=top;resizable=0;rotatable=0;part=1;html=1;" vertex="1" parent="KJx55b0Kp46psc_Pwh8A-116">
          <mxGeometry y="50" width="160" height="95" as="geometry" />
        </mxCell>
        <mxCell id="KJx55b0Kp46psc_Pwh8A-119" value="" style="edgeStyle=entityRelationEdgeStyle;fontSize=12;html=1;endArrow=ERoneToMany;startArrow=none;rounded=0;exitX=1;exitY=0.5;exitDx=0;exitDy=0;entryX=0;entryY=0.75;entryDx=0;entryDy=0;startFill=0;endFill=0;dashed=1;" edge="1" parent="1" source="KJx55b0Kp46psc_Pwh8A-113" target="KJx55b0Kp46psc_Pwh8A-117">
          <mxGeometry width="100" height="100" relative="1" as="geometry">
            <mxPoint x="340" y="2590" as="sourcePoint" />
            <mxPoint x="440" y="2490" as="targetPoint" />
          </mxGeometry>
        </mxCell>
        <mxCell id="KJx55b0Kp46psc_Pwh8A-120" value="" style="edgeStyle=entityRelationEdgeStyle;fontSize=12;html=1;endArrow=none;startArrow=ERoneToMany;rounded=0;entryX=0;entryY=0.5;entryDx=0;entryDy=0;exitX=1;exitY=0.75;exitDx=0;exitDy=0;startFill=0;endFill=0;dashed=1;" edge="1" parent="1" source="KJx55b0Kp46psc_Pwh8A-117" target="KJx55b0Kp46psc_Pwh8A-115">
          <mxGeometry width="100" height="100" relative="1" as="geometry">
            <mxPoint x="520" y="2630" as="sourcePoint" />
            <mxPoint x="620" y="2530" as="targetPoint" />
          </mxGeometry>
        </mxCell>
      </root>
    </mxGraphModel>
  </diagram>
</mxfile>
